<svg version="1.1" id="Layer_1" xmlns="http://www.w3.org/2000/svg" xmlns:xlink="http://www.w3.org/1999/xlink" x="0px" y="0px"
	 width="100%" viewBox="0 0 1024 576" enable-background="new 0 0 1024 576" xml:space="preserve">
<path fill="#000000" opacity="1.000000" stroke="none" 
	d="
M297.421417,298.997437 
	C297.449860,307.492706 297.322998,315.494873 297.582794,323.484436 
	C297.688110,326.723785 296.713135,328.146515 293.449677,328.091919 
	C288.451416,328.008270 283.450226,328.003601 278.451691,328.070587 
	C275.383636,328.111694 274.467346,326.582275 274.473907,323.715576 
	C274.559479,286.218323 274.613953,248.720917 274.567871,211.223679 
	C274.563507,207.655075 276.010040,206.574005 279.347839,206.668396 
	C285.009644,206.828506 290.691681,206.940033 296.341400,206.633530 
	C300.235718,206.422226 302.373993,208.033005 304.286652,211.251572 
	C318.159943,234.597076 332.185059,257.852386 346.167450,281.133057 
	C347.016357,282.546478 347.911011,283.932434 349.494385,286.468323 
	C349.494385,280.092163 349.777008,274.942627 349.444305,269.833160 
	C348.164948,250.185974 349.159698,230.527283 348.905182,210.876877 
	C348.867493,207.966354 350.152405,206.626114 353.130127,206.696152 
	C357.460785,206.798019 361.816162,206.983902 366.123230,206.648636 
	C370.869202,206.279205 372.498596,207.909500 372.436279,212.803650 
	C372.192322,231.966156 372.342407,251.133652 372.340454,270.299286 
	C372.338684,287.631683 372.214813,304.965363 372.404968,322.295624 
	C372.452118,326.593140 371.036285,327.679077 366.769012,328.253143 
	C353.629028,330.020752 345.409210,326.063232 338.840118,313.387695 
	C327.211029,290.948700 313.168549,269.759857 300.110748,248.063110 
	C299.287292,246.694885 298.725189,245.056091 296.250702,243.947021 
	C298.395142,262.409485 297.591675,280.456573 297.421417,298.997437 
z"/>
<path fill="#000000" opacity="1.000000" stroke="none" 
	d="
M629.680603,323.810028 
	C612.847168,335.607513 590.383606,331.481720 576.990479,314.410095 
	C562.119202,295.454315 565.147339,263.798401 583.273987,248.028793 
	C594.779968,238.018982 617.471558,233.306702 632.603638,247.910263 
	C633.290649,248.573242 634.076721,249.133545 634.822815,249.746704 
	C635.213562,249.308075 635.581482,249.090378 635.605286,248.839951 
	C636.338867,241.126877 636.333679,241.126373 644.074402,241.073090 
	C657.337280,240.981812 657.342590,240.981827 657.341858,254.235580 
	C657.339966,288.728699 657.337097,323.221832 657.324097,357.714966 
	C657.321655,364.237274 657.299316,364.245758 650.612183,364.271088 
	C647.112976,364.284363 643.601013,364.072906 640.117615,364.304413 
	C636.039246,364.575470 634.437866,363.057159 634.636658,358.872864 
	C635.220703,346.579468 633.705994,334.227875 635.616577,321.961212 
	C635.739075,321.174988 635.564819,320.342590 635.494690,318.770142 
	C633.342834,320.640900 631.650330,322.112244 629.680603,323.810028 
M634.455444,293.777069 
	C638.778015,279.055389 632.801453,265.411926 620.223938,261.288910 
	C608.578979,257.471588 596.339844,263.598999 592.035645,275.401215 
	C587.428101,288.035370 593.212769,302.685638 604.710938,307.502686 
	C616.356873,312.381622 628.445129,307.043884 634.455444,293.777069 
z"/>
<path fill="#000000" opacity="1.000000" stroke="none" 
	d="
M672.485046,277.756561 
	C678.205933,240.995605 717.815796,228.675552 742.725891,246.817490 
	C755.926331,256.431335 759.666138,270.504242 759.159729,286.100189 
	C759.032410,290.022858 756.394226,290.352509 753.255249,290.340973 
	C735.926270,290.277252 718.596863,290.311310 701.267639,290.321747 
	C694.734070,290.325684 693.973267,291.615234 696.933044,297.597565 
	C704.020996,311.924042 725.550415,314.631378 735.717285,302.129333 
	C738.651550,298.521118 740.861816,298.336273 744.410767,300.464478 
	C747.258545,302.172180 750.297302,303.606140 753.364258,304.892029 
	C756.897339,306.373230 757.282043,308.170746 755.063354,311.308929 
	C747.870178,321.483185 738.275452,327.594421 726.006104,329.905273 
	C694.575256,335.825226 667.368896,309.656891 672.485046,277.756561 
M708.133301,259.372467 
	C702.210938,262.028778 698.570984,266.604431 696.241699,272.608795 
	C701.340637,274.151184 732.330017,274.039978 736.170898,272.651062 
	C734.586609,261.213440 722.674438,255.303940 708.133301,259.372467 
z"/>
<path fill="#000000" opacity="1.000000" stroke="none" 
	d="
M464.137695,256.097412 
	C466.971863,262.108429 468.198395,268.135071 468.237366,274.343262 
	C468.337708,290.337646 468.149719,306.334564 468.347015,322.327148 
	C468.401642,326.756165 466.755432,328.326233 462.494781,328.060944 
	C458.843201,327.833557 455.157623,327.844604 451.503540,328.047211 
	C447.424469,328.273376 445.015839,327.109009 445.610809,322.493530 
	C445.710083,321.723572 445.765533,320.809998 444.941864,320.229767 
	C443.722260,319.908478 443.138763,320.873962 442.469269,321.534180 
	C433.201447,330.673676 422.025665,332.085236 410.024506,329.170013 
	C397.908112,326.226776 389.366974,316.039215 388.694550,304.390259 
	C387.896454,290.565277 394.369202,280.205322 406.729828,275.199951 
	C417.730438,270.745331 428.856354,271.261353 440.087402,273.989777 
	C441.380096,274.303802 442.654022,274.695496 443.948486,275.001190 
	C444.245361,275.071320 444.591156,274.934540 444.913818,274.888245 
	C446.524933,267.801422 442.349976,261.118896 434.601044,258.632690 
	C424.997955,255.551590 416.335999,257.980255 408.985291,264.287140 
	C405.754120,267.059479 403.767120,266.851898 401.084259,264.233582 
	C399.779663,262.960358 398.242096,261.924408 396.799469,260.794464 
	C390.430328,255.805710 390.412354,255.467697 396.276215,250.070984 
	C410.306030,237.158920 437.137390,234.638412 453.375275,244.706573 
	C457.853577,247.483292 461.458038,251.097809 464.137695,256.097412 
M440.909454,305.357697 
	C443.208160,302.617584 444.424713,299.382568 445.293854,295.966095 
	C445.784180,294.038727 445.257935,292.742950 443.363037,292.011108 
	C435.240906,288.874115 426.932617,287.838928 418.547821,290.575378 
	C413.809509,292.121735 410.922516,297.034790 411.433258,302.005585 
	C411.943176,306.968140 414.712250,310.272766 419.587677,311.553192 
	C427.592834,313.655487 434.687225,312.190979 440.909454,305.357697 
z"/>
<path fill="#000000" opacity="1.000000" stroke="none" 
	d="
M549.052612,260.293457 
	C547.331482,261.017822 545.888000,261.490784 544.589417,262.221405 
	C539.141663,265.286346 534.643311,266.908447 529.200439,260.851135 
	C524.955322,256.126801 517.982605,256.394745 511.780457,258.580597 
	C509.490723,259.387604 507.642731,260.757416 507.279694,263.432007 
	C506.895172,266.264313 508.231049,268.243774 510.458618,269.735931 
	C514.872681,272.692596 520.057312,273.420532 525.057922,274.600891 
	C531.391846,276.095978 537.652466,277.682495 543.383301,280.942688 
	C558.805298,289.716034 560.950623,309.018341 547.869934,320.968689 
	C532.962830,334.587708 497.308868,334.919189 484.068237,313.942413 
	C479.972687,307.453888 479.967072,307.027283 486.793121,303.927429 
	C488.005920,303.376678 489.223694,302.835999 490.450012,302.316223 
	C493.358185,301.083588 496.203979,299.108612 499.202423,298.836212 
	C502.882812,298.501862 503.368164,302.990631 505.632996,305.024384 
	C511.027252,309.868286 521.897461,311.720490 528.695251,308.715393 
	C531.413574,307.513702 533.050293,305.512177 533.253479,302.668396 
	C533.465332,299.703430 531.698730,297.677399 529.137329,296.380737 
	C523.563171,293.558929 517.440125,292.625305 511.422180,291.377350 
	C504.621155,289.967010 498.397339,287.433014 493.069153,282.850647 
	C480.736328,272.244171 481.668335,254.355545 495.072144,245.164673 
	C510.224792,234.774719 536.541382,236.886551 548.393555,249.474289 
	C549.529053,250.680222 550.450745,252.084732 551.519531,253.356781 
	C554.369568,256.748718 553.542969,258.965515 549.052612,260.293457 
z"/>
</svg>